<?xml version="1.0" standalone="no"?><!DOCTYPE svg PUBLIC "-//W3C//DTD SVG 1.1//EN" "http://www.w3.org/Graphics/SVG/1.1/DTD/svg11.dtd"><svg t="1768805207273" class="icon" viewBox="0 0 1024 1024" version="1.1" xmlns="http://www.w3.org/2000/svg" p-id="6794" xmlns:xlink="http://www.w3.org/1999/xlink" width="200" height="200"><path d="M849.8 345.4l-12.9 7.4-0.1 0.1C737.2 234 543.1 210.6 379.3 305.2c-163.7 94.5-240.6 274.3-187.4 420l-10.9 6.3c-26.3 15.2-35.4 49.1-20.2 75.4l6.3 10.9c15.2 26.3 49.1 35.4 75.4 20.2l12.9-7.4c1.4-0.8 2.5-1.8 3.8-2.7 104.1 99.3 283.6 113.9 436.6 25.6C848.9 764.9 926 602 891.9 462.1c2.2-0.9 4.4-1.7 6.4-2.9l12.9-7.4c26.3-15.2 35.4-49.1 20.2-75.4l-6.3-10.9c-15.1-26.2-49-35.3-75.3-20.1z" fill="#F9F967" p-id="6795"></path><path d="M441.5 872.3c-8.8 0-17.7-0.3-26.5-0.9-76.9-5-147.5-32.3-201.1-77.3l-2 1.2c-37.8 21.8-86.3 8.8-108.1-29l-6.3-10.9c-10.5-18.3-13.3-39.6-7.8-60 4.9-18.2 15.8-33.7 31-44.4-20.9-72-14.3-152.2 19.1-228.1 36.2-82.2 101.9-154 185-201.9 83.1-48 178-69 267.4-59.3 82.3 9 155 43.3 206.9 97.4 17.4-8.8 37.1-10.8 56.2-5.7 20.5 5.5 37.5 18.6 48.1 36.8l6.3 10.9c21.8 37.8 8.8 86.3-29 108.1l-4.2 2.4c12.2 68.9 0.5 143.6-33.5 212.7-18.4 37.3-42.7 72-72.3 103.4-30.5 32.3-66 60.3-105.5 83-39.4 22.8-81.3 39.5-124.6 49.8-32.9 7.9-66.2 11.8-99.1 11.8zM216.7 740.5c6 0 12 2.2 16.5 6.6 99.1 94.6 266.9 103.7 408.1 22.2 141.3-81.6 217.3-231.5 184.8-364.7-2.8-11.5 3.2-23.3 14.1-27.8 0.5-0.2 1.1-0.4 1.6-0.6 0.8-0.3 1.8-0.7 2.1-0.9l12.9-7.4c14.9-8.6 20-27.7 11.4-42.6l-6.3-10.9c-4.1-7.2-10.9-12.3-19-14.5-8.1-2.2-16.5-1.1-23.7 3.1l-12.3 7.1c-0.2 0.1-0.4 0.3-0.7 0.4-10.1 5.9-23 3.6-30.5-5.3-92.9-111.1-276.5-129.3-427-42.4s-226.6 255-176.8 391c4 10.9-0.4 23.2-10.5 29l-10.9 6.3c-7.2 4.1-12.3 10.9-14.5 19-2.2 8.1-1.1 16.5 3.1 23.7l6.3 10.9c8.6 14.9 27.7 20 42.6 11.4l12.3-7.1 0.2-0.2c0.6-0.5 1.4-1.1 2.4-1.8 4.2-3.1 9-4.5 13.8-4.5z m577.7-451z m12.9-7.4z" fill="" p-id="6796"></path><path d="M288 411.9c-5.7 0-11.4-2-15.9-6.1-9.9-8.8-10.8-23.9-2-33.8 3.5-4 88.4-98.2 223.4-123.3 13-2.4 25.5 6.2 27.9 19.2 2.4 13-6.2 25.5-19.2 27.9-61.5 11.4-111.4 40-142.5 61.9-34.1 24.1-53.7 45.9-53.9 46.1-4.6 5.4-11.2 8.1-17.8 8.1z" fill="" p-id="6797"></path></svg>