<?xml version="1.0" standalone="no"?><!DOCTYPE svg PUBLIC "-//W3C//DTD SVG 1.1//EN" "http://www.w3.org/Graphics/SVG/1.1/DTD/svg11.dtd"><svg t="1768809442470" class="icon" viewBox="0 0 1024 1024" version="1.1" xmlns="http://www.w3.org/2000/svg" p-id="5229" width="48" height="48" xmlns:xlink="http://www.w3.org/1999/xlink"><path d="M499.7 928.4h-0.9c-130-0.5-268.5-85.7-329.5-202.6-11.2-21.5-16.8-38.4-21.8-53.3-7-21.1-12.6-37.8-32.7-61.7-16.2-19.3-31.3-30.9-44.6-41.2-18.7-14.4-36.3-27.9-38-54.1-1.7-26.1 13.7-42.1 34.9-64.3 13.3-13.8 29.7-31.1 49.6-57 16-20.9 21.6-31.2 27.1-41.2 5.1-9.2 10.3-18.8 22.4-34.6 72.2-94.7 188.8-158.1 312-169.7l8.9-0.8c132.2-10.1 232.8 39.2 281.1 69.5 45.1 28.3 190.8 131.7 203.7 289.9 11 9.1 20.4 20.1 20.2 33.8-0.3 16.6-13.2 25.6-25.8 34.3-14.5 10.1-30.9 21.5-37.7 45.8-46 166.4-222.7 298.2-410.9 306.7l-2 0.1c-4 0.1-9.2 0.4-16 0.4z m21.5-744c-10.2 0-20.6 0.4-31.3 1.2l-8.3 0.7C368.7 197 262 254.9 196.2 341.3c-10.4 13.6-14.5 21.1-19.3 29.9-5.8 10.7-12.4 22.7-30.2 45.9-21.1 27.7-39.2 46.5-52.3 60.3-20 20.9-25 27.1-24.5 35.6 0.5 8.4 6.2 13.3 23.3 26.5 14.1 10.8 31.7 24.3 50.5 46.8 24.8 29.5 32 51.2 39.6 74.1 4.7 14.2 9.6 28.9 19.4 47.7C257.6 813.3 382.1 890 498.8 890.4c6.7 0.1 11.3-0.2 14.9-0.4l2.2-0.1c172.6-7.8 334.3-127.7 376.1-279 10.4-37.6 35.8-55.2 52.6-66.8 2.1-1.4 4.5-3.1 6.6-4.7-1.9-1.8-4.8-4.2-9.1-7.5l-7.2-5.3-0.4-8.9C927.4 373 789.9 275.8 747.9 249.4c-32.6-20.5-116.3-65-226.7-65z" fill="#4F46E5" p-id="5230"></path><path d="M469.5 825.1v-0.1c-1-10 5.9-19 15.8-20.5 58.3-9 242.9-46.9 277.3-167.6 2.6-9.1 11.7-14.7 21-13.2 11.2 1.8 18.3 13.2 15.2 24.1C758 790.8 555.7 832.3 491 842c-10.7 1.5-20.5-6.2-21.5-16.9z" fill="#4F46E5" p-id="5231"></path></svg>