<svg xmlns="http://www.w3.org/2000/svg" viewBox="0 0 64 64">
  <defs>
    <linearGradient id="lemonGradient" x1="0" y1="0" x2="1" y2="1">
      <stop offset="0" stop-color="#fff9c4" />
      <stop offset="1" stop-color="#fdd835" />
    </linearGradient>
  </defs>
  <g fill="none" fill-rule="evenodd">
    <path
      d="M14 32c0-10.493 8.507-19 19-19 5.325 0 9.947 2.154 13.33 5.647C49.846 22.969 52 27.55 52 32s-2.154 9.031-5.67 13.353C42.947 48.846 38.325 51 33 51c-10.493 0-19-8.507-19-19Z"
      fill="url(#lemonGradient)"
      stroke="#fbc02d"
      stroke-width="2"
    />
    <path
      d="M24 28c2-2 4-3 8-3s6 1 8 3"
      stroke="#ffeb3b"
      stroke-width="2"
      stroke-linecap="round"
      opacity="0.8"
    />
    <path
      d="M24 36c2 2 4 3 8 3s6-1 8-3"
      stroke="#f9a825"
      stroke-width="2"
      stroke-linecap="round"
      opacity="0.7"
    />
    <path
      d="M32 13c3 0 5-1 7-3"
      stroke="#2e7d32"
      stroke-width="2"
      stroke-linecap="round"
    />
    <path
      d="M39 9c2-2.5 4.5-3.8 7-4"
      stroke="#388e3c"
      stroke-width="2"
      stroke-linecap="round"
    />
  </g>
</svg>

