<?xml version="1.0" standalone="no"?><!DOCTYPE svg PUBLIC "-//W3C//DTD SVG 1.1//EN" "http://www.w3.org/Graphics/SVG/1.1/DTD/svg11.dtd"><svg t="1768804348235" class="icon" viewBox="0 0 1024 1024" version="1.1" xmlns="http://www.w3.org/2000/svg" p-id="3709" xmlns:xlink="http://www.w3.org/1999/xlink" width="200" height="200"><path d="M514.4 889.7c-1 0-2-0.4-2.8-1.2-1.6-1.6-1.6-4.1 0-5.7l22.4-22.4c1.6-1.6 4.1-1.6 5.7 0 1.6 1.6 1.6 4.1 0 5.7l-22.4 22.4c-0.9 0.8-1.9 1.2-2.9 1.2z" fill="#FC639D" p-id="3710"></path><path d="M536.8 889.7c-1 0-2-0.4-2.8-1.2l-22.4-22.4c-1.6-1.6-1.6-4.1 0-5.7 1.6-1.6 4.1-1.6 5.7 0l22.4 22.4c1.6 1.6 1.6 4.1 0 5.7-0.9 0.8-1.9 1.2-2.9 1.2z" fill="#FC639D" p-id="3711"></path><path d="M205.4 312.6c-1 0-2-0.4-2.8-1.2-1.6-1.6-1.6-4.1 0-5.7l22.4-22.4c1.6-1.6 4.1-1.6 5.7 0 1.6 1.6 1.6 4.1 0 5.7l-22.4 22.4c-0.8 0.8-1.8 1.2-2.9 1.2z" fill="#2FF1FD" p-id="3712"></path><path d="M227.8 312.6c-1 0-2-0.4-2.8-1.2L202.6 289c-1.6-1.6-1.6-4.1 0-5.7 1.6-1.6 4.1-1.6 5.7 0l22.4 22.4c1.6 1.6 1.6 4.1 0 5.7-0.8 0.8-1.8 1.2-2.9 1.2z" fill="#2FF1FD" p-id="3713"></path><path d="M597.4 176.3c-1 0-2-0.4-2.8-1.2-1.6-1.6-1.6-4.1 0-5.7L617 147c1.6-1.6 4.1-1.6 5.7 0 1.6 1.6 1.6 4.1 0 5.7l-22.4 22.4c-0.8 0.9-1.9 1.2-2.9 1.2z" fill="#FC639D" p-id="3714"></path><path d="M619.8 176.3c-1 0-2-0.4-2.8-1.2l-22.4-22.4c-1.6-1.6-1.6-4.1 0-5.7 1.6-1.6 4.1-1.6 5.7 0l22.4 22.4c1.6 1.6 1.6 4.1 0 5.7-0.8 0.9-1.9 1.2-2.9 1.2z" fill="#FC639D" p-id="3715"></path><path d="M852.7 446.4c-9.6 0-17.4-7.8-17.4-17.4s7.8-17.4 17.4-17.4 17.4 7.8 17.4 17.4-7.8 17.4-17.4 17.4z m0-26.9c-5.2 0-9.4 4.2-9.4 9.4s4.2 9.4 9.4 9.4 9.4-4.2 9.4-9.4-4.2-9.4-9.4-9.4z" fill="#9591FC" p-id="3716"></path><path d="M697.9 847.1c-9.6 0-17.4-7.8-17.4-17.4s7.8-17.4 17.4-17.4 17.4 7.8 17.4 17.4-7.7 17.4-17.4 17.4z m0-26.9c-5.2 0-9.4 4.2-9.4 9.4s4.2 9.4 9.4 9.4 9.4-4.2 9.4-9.4-4.2-9.4-9.4-9.4z" fill="#2FF1FD" p-id="3717"></path><path d="M357.5 833.6h-22.8c-2.2 0-4-1.8-4-4s1.8-4 4-4h22.8c2.2 0 4 1.8 4 4s-1.8 4-4 4z" fill="#9591FC" p-id="3718"></path><path d="M198.6 708.2h-22.8c-2.2 0-4-1.8-4-4s1.8-4 4-4h22.8c2.2 0 4 1.8 4 4s-1.8 4-4 4z" fill="#FC639D" p-id="3719"></path><path d="M757.1 617.5h-22.8c-2.2 0-4-1.8-4-4s1.8-4 4-4h22.8c2.2 0 4 1.8 4 4s-1.8 4-4 4z" fill="#2FF1FD" p-id="3720"></path><path d="M422.2 322.3m-6.8 0a6.8 6.8 0 1 0 13.6 0 6.8 6.8 0 1 0-13.6 0Z" fill="" p-id="3721"></path><path d="M752.5 392.5m-6.8 0a6.8 6.8 0 1 0 13.6 0 6.8 6.8 0 1 0-13.6 0Z" fill="" p-id="3722"></path><path d="M319.3 392.5m-6.8 0a6.8 6.8 0 1 0 13.6 0 6.8 6.8 0 1 0-13.6 0Z" fill="" p-id="3723"></path><path d="M787 315.4m-6.8 0a6.8 6.8 0 1 0 13.6 0 6.8 6.8 0 1 0-13.6 0Z" fill="" p-id="3724"></path><path d="M169 476.2m-6.8 0a6.8 6.8 0 1 0 13.6 0 6.8 6.8 0 1 0-13.6 0Z" fill="" p-id="3725"></path><path d="M429 154.3m-6.8 0a6.8 6.8 0 1 0 13.6 0 6.8 6.8 0 1 0-13.6 0Z" fill="" p-id="3726"></path><path d="M676.6 704.2m-6.8 0a6.8 6.8 0 1 0 13.6 0 6.8 6.8 0 1 0-13.6 0Z" fill="" p-id="3727"></path><path d="M601.8 267m-6.8 0a6.8 6.8 0 1 0 13.6 0 6.8 6.8 0 1 0-13.6 0Z" fill="" p-id="3728"></path><path d="M866.1 606.7m-6.8 0a6.8 6.8 0 1 0 13.6 0 6.8 6.8 0 1 0-13.6 0Z" fill="" p-id="3729"></path><path d="M278.4 557.3m-6.8 0a6.8 6.8 0 1 0 13.6 0 6.8 6.8 0 1 0-13.6 0Z" fill="" p-id="3730"></path><path d="M466.7 757.4m-6.8 0a6.8 6.8 0 1 0 13.6 0 6.8 6.8 0 1 0-13.6 0Z" fill="" p-id="3731"></path><path d="M832.4 726.2m-6.8 0a6.8 6.8 0 1 0 13.6 0 6.8 6.8 0 1 0-13.6 0Z" fill="" p-id="3732"></path><path d="M659.1 342.8l-12.8 12.8c-55.8-31.8-141.8-2.3-210.5 66.5s-97.1 153.5-65.3 209.3l-12.9 12.9c-9.6 9.6-9.8 25.2-0.4 34.6 9.4 9.4 25 9.3 34.6-0.4l12.9-12.9c55.8 31.8 146.1 7.8 214.8-60.9s92.7-159.1 60.9-214.8l12.8-12.8c9.6-9.6 9.8-25.2 0.4-34.6-9.3-9.5-24.9-9.3-34.5 0.3z" fill="#FFD70D" p-id="3733"></path><path d="M675.7 352.4l-14.3 14.3c4.4 7.8 7.9 16.1 10.4 24.9l12.6-12.6c9.6-9.6 9.8-25.2 0.4-34.6-0.8-0.8-1.6-1.5-2.5-2.2-1.4 3.7-3.6 7.2-6.6 10.2zM593 607.9c-32.2 32.2-68.7 55.7-104.8 69.5 41.2-9.1 85-33.3 122.5-70.7 68.4-68.4 92.4-158.1 61.4-214 17.2 62.4-11.9 148-79.1 215.2zM351.8 676.3l-4 4c0.2 0.2 0.3 0.4 0.5 0.6 7 7 17.4 8.7 26.2 5.2-8-2.6-15.6-5.8-22.7-9.8z" fill="#E8A318" p-id="3734"></path><path d="M373.2 691.1c-9.4 0-18.9-3.7-26.1-11-6.8-6.8-10.6-15.6-10.9-25-0.3-9.6 3.2-18.6 9.8-25.2l7.5-7.5c-33-64.4-8.8-158.2 59.5-226.5 6.6-6.6 13.6-13 20.8-18.8 4.3-3.5 10.6-2.9 14.1 1.4s2.9 10.6-1.4 14.1c-6.7 5.5-13.2 11.3-19.3 17.5-31.6 31.6-54.2 70.4-63.5 109.3-9 37.5-5.1 73 10.8 99.7 2.3 3.9 1.7 9-1.5 12.2l-13 12.8c-2.7 2.7-4.1 6.4-4 10.4 0.1 4.3 1.9 8.4 5.1 11.5 6.4 6.4 16.2 6.9 21.9 1.1l12.8-12.8c3.2-3.2 8.3-3.9 12.2-1.5 26.8 16 62.2 19.8 99.7 10.8 38.8-9.3 77.6-31.8 109.3-63.5 31.6-31.6 54.2-70.4 63.5-109.3 9-37.5 5.1-73-10.8-99.7-2.3-3.9-1.7-9 1.5-12.2l12.7-12.7c2.7-2.7 4.1-6.4 4-10.4-0.1-4.3-1.9-8.4-5.1-11.5-3.1-3.1-7.2-4.9-11.5-5.1-4.1-0.1-7.7 1.3-10.4 4l-12.7 12.7c-3.2 3.2-8.3 3.9-12.2 1.5-29.9-17.9-69.5-20.5-111.6-7.6-5.3 1.6-10.9-1.3-12.5-6.6-1.6-5.3 1.3-10.9 6.6-12.5 44.5-13.7 87.1-11.6 120.9 5.7l7.4-7.4c13.5-13.5 36.1-13 50.2 1.1 6.8 6.8 10.6 15.6 10.9 25 0.3 9.6-3.2 18.6-9.8 25.2l-7.4 7.4c33 64.4 8.8 158.2-59.5 226.5-47.9 47.9-108.3 74.1-162.4 74.1-23 0-44.9-4.8-64.1-14.6l-7.5 7.5c-6.5 6.7-15.2 9.9-24 9.9z" fill="#000333" p-id="3735"></path><path d="M476.7 369.7c-3.5 0-6.9-1.8-8.7-5.1-2.7-4.8-1-10.9 3.8-13.6 5.3-3 10.7-5.8 16.1-8.3 5-2.4 11-0.2 13.3 4.8 2.4 5 0.2 11-4.8 13.3-5 2.3-10 4.9-14.9 7.7-1.4 0.8-3.1 1.2-4.8 1.2z" fill="#000333" p-id="3736"></path><path d="M525.6 628c-3.8 0-7.4-2.2-9.1-5.8-2.3-5-0.1-11 4.9-13.3 78.2-35.8 113.8-128.5 114.1-129.4 1.9-5.2 7.7-7.8 12.9-5.8 5.2 1.9 7.8 7.7 5.9 12.9-0.4 1-9.7 25.7-29.6 55.3-18.5 27.5-49.9 64.7-95 85.3-1.3 0.5-2.7 0.8-4.1 0.8z" fill="#000333" p-id="3737"></path></svg>